{
  "asset": {
    "version": "2.0",
    "generator": "THREE.GLTFExporter"
  },
  "scenes": [
    {
      "nodes": [
        0
      ]
    }
  ],
  "scene": 0,
  "nodes": [
    {
      "children": [
        1,
        2,
        3,
        4,
        5,
        6
      ],
      "matrix": [
        0.01,
        0,
        0,
        0,
        0,
        0.01,
        0,
        0,
        0,
        0,
        0.01,
        0,
        0,
        0,
        0,
        1
      ]
    },
    {
      "matrix": [
        0.9959850991447913,
        0.024393117197931212,
        0.08613163248718993,
        0,
        -0.025672584250003586,
        0.9995754478553578,
        0.013778333088125363,
        0,
        -0.08575896862408518,
        -0.015934236038444228,
        0.9961884858913017,
        0,
        2.175175686443879,
        143.51132561259385,
        -12.078784421417453,
        1
      ],
      "name": "Text",
      "mesh": 0
    },
    {
      "matrix": [
        0.5249264705438564,
        -0.43297934474162847,
        -0.7327899341212869,
        0,
        0.6363086301974155,
        0.7714345903161777,
        0,
        0,
        0.5652995026166738,
        -0.4662805592031704,
        0.680454930506437,
        0,
        0,
        0,
        0,
        1
      ],
      "name": "Light Main",
      "extensions": {
        "KHR_lights_punctual": {
          "light": 0
        }
      }
    },
    {
      "matrix": [
        0.19510680503180866,
        -0.3578366664398443,
        -0.9131737265063529,
        0,
        -0.8779748072229228,
        -0.4787068391843504,
        0,
        0,
        -0.43714250824205064,
        0.8017435264904531,
        -0.4075705401749501,
        0,
        0,
        0,
        0,
        1
      ],
      "name": "Key Light",
      "extensions": {
        "KHR_lights_punctual": {
          "light": 1
        }
      }
    },
    {
      "matrix": [
        1,
        0,
        0,
        0,
        0,
        2.220446049250313e-16,
        -1,
        0,
        0,
        1,
        2.220446049250313e-16,
        0,
        0,
        0,
        0,
        1
      ],
      "name": "Floor",
      "mesh": 1
    },
    {
      "matrix": [
        0.9772351095676133,
        -1.734723475976807e-18,
        -0.2121592341341164,
        0,
        -0.022577111538914292,
        0.9943217087772018,
        -0.10399333386782457,
        0,
        0.21095453221709706,
        0.10641587970968151,
        0.9716860840223454,
        0,
        210.95453221709587,
        106.41588970968094,
        971.8860840214098,
        1
      ],
      "camera": 0
    },
    {
      "matrix": [
        1,
        0,
        0,
        0,
        0,
        1,
        0,
        0,
        0,
        0,
        1,
        0,
        0,
        1,
        0,
        1
      ],
      "name": "Default Ambient Light"
    }
  ],
  "bufferViews": [
    {
      "buffer": 0,
      "byteOffset": 0,
      "byteLength": 20784,
      "target": 34962,
      "byteStride": 12
    },
    {
      "buffer": 0,
      "byteOffset": 20784,
      "byteLength": 20784,
      "target": 34962,
      "byteStride": 12
    },
    {
      "buffer": 0,
      "byteOffset": 41568,
      "byteLength": 13856,
      "target": 34962,
      "byteStride": 8
    },
    {
      "buffer": 0,
      "byteOffset": 55424,
      "byteLength": 13008,
      "target": 34963
    },
    {
      "buffer": 0,
      "byteOffset": 68432,
      "byteLength": 48,
      "target": 34962,
      "byteStride": 12
    },
    {
      "buffer": 0,
      "byteOffset": 68480,
      "byteLength": 48,
      "target": 34962,
      "byteStride": 12
    },
    {
      "buffer": 0,
      "byteOffset": 68528,
      "byteLength": 32,
      "target": 34962,
      "byteStride": 8
    },
    {
      "buffer": 0,
      "byteOffset": 68560,
      "byteLength": 24,
      "target": 34963
    }
  ],
  "buffers": [
    {
      "byteLength": 68584,
      "uri": "data:application/octet-stream;base64,"
    }
  ],
  "accessors": [
    {
      "bufferView": 0,
      "componentType": 5126,
      "count": 1732,
      "max": [
        274.20001220703125,
        124.06160736083984,
        93.64193725585938
      ],
      "min": [
        -270.8999938964844,
        -96.13837432861328,
        0
      ],
      "type": "VEC3"
    },
    {
      "bufferView": 1,
      "componentType": 5126,
      "count": 1732,
      "max": [
        1,
        1,
        1
      ],
      "min": [
        -1,
        -1,
        -1
      ],
      "type": "VEC3"
    },
    {
      "bufferView": 2,
      "componentType": 5126,
      "count": 1732,
      "max": [
        1,
        1
      ],
      "min": [
        0,
        0
      ],
      "type": "VEC2"
    },
    {
      "bufferView": 3,
      "componentType": 5123,
      "count": 6504,
      "max": [
        1731
      ],
      "min": [
        0
      ],
      "type": "SCALAR"
    },
    {
      "bufferView": 4,
      "componentType": 5126,
      "count": 4,
      "max": [
        2000,
        2000,
        0
      ],
      "min": [
        -2000,
        -2000,
        0
      ],
      "type": "VEC3"
    },
    {
      "bufferView": 5,
      "componentType": 5126,
      "count": 4,
      "max": [
        0,
        0,
        1
      ],
      "min": [
        0,
        0,
        1
      ],
      "type": "VEC3"
    },
    {
      "bufferView": 6,
      "componentType": 5126,
      "count": 4,
      "max": [
        1,
        1
      ],
      "min": [
        0,
        0
      ],
      "type": "VEC2"
    },
    {
      "bufferView": 7,
      "componentType": 5125,
      "count": 6,
      "max": [
        3
      ],
      "min": [
        0
      ],
      "type": "SCALAR"
    }
  ],
  "meshes": [
    {
      "primitives": [
        {
          "mode": 4,
          "attributes": {
            "POSITION": 0,
            "NORMAL": 1,
            "TEXCOORD_0": 2
          },
          "extras": {
            "parameters": {
              "type": "TextGeometry",
              "width": 804.75,
              "height": 342.276778257669,
              "depth": 93.64193951138833,
              "horizontalAlign": 3,
              "verticalAlign": 3,
              "fontSize": 300,
              "lineHeight": 1.2,
              "letterSpacing": 0,
              "text": "404",
              "textTransform": 1,
              "font": "Poppins_regular",
              "extrudeBevelSize": 2,
              "extrudeBevelSegments": 1
            },
            "type": "TextGeometry"
          },
          "indices": 3
        }
      ]
    },
    {
      "primitives": [
        {
          "mode": 4,
          "attributes": {
            "POSITION": 4,
            "NORMAL": 5,
            "TEXCOORD_0": 6
          },
          "extras": {
            "shape": {
              "points": [
                -2000,
                2000,
                -2000,
                2000,
                -2000,
                2000,
                0,
                2000,
                2000,
                2000,
                2000,
                2000,
                2000,
                0,
                2000,
                -2000,
                2000,
                -2000,
                2000,
                -2000,
                0,
                -2000,
                -2000,
                -2000,
                -2000,
                -2000,
                -2000,
                0
              ],
              "shapeHoles": [],
              "isClosed": true,
              "roundness": 0
            },
            "parameters": {
              "width": 4000,
              "depth": 0,
              "cornerRadius": [
                0,
                0,
                0,
                0
              ],
              "cornerType": 0,
              "extrudeBevelSize": 0,
              "extrudeBevelSegments": 1,
              "height": 4000,
              "type": "RectangleGeometry"
            },
            "ui": {
              "enabledIndieCorners": false
            },
            "type": "RectangleGeometry"
          },
          "indices": 7
        }
      ]
    }
  ],
  "extensions": {
    "KHR_lights_punctual": {
      "lights": [
        {
          "name": "Light Main",
          "color": [
            1,
            1,
            1
          ],
          "intensity": 1,
          "type": "directional"
        },
        {
          "name": "Key Light",
          "color": [
            1,
            1,
            1
          ],
          "intensity": 0.2,
          "type": "directional"
        }
      ]
    }
  },
  "cameras": [
    {
      "type": "orthographic",
      "orthographic": {
        "xmag": 14.212744751782733,
        "ymag": 6.643717924335939,
        "zfar": 100000,
        "znear": 0
      }
    }
  ],
  "extensionsUsed": [
    "KHR_lights_punctual"
  ]
}